<?xml version="1.0" encoding="UTF-8"?>
<!DOCTYPE svg PUBLIC "-//W3C//DTD SVG 1.1//EN" "http://www.w3.org/Graphics/SVG/1.1/DTD/svg11.dtd">
<!-- Creator: CorelDRAW 2019 (64-Bit) -->
<svg xmlns="http://www.w3.org/2000/svg" xml:space="preserve" width="210mm" height="100mm" version="1.1" style="shape-rendering:geometricPrecision; text-rendering:geometricPrecision; image-rendering:optimizeQuality; fill-rule:evenodd; clip-rule:evenodd"
viewBox="0 0 21000 10000"
 xmlns:xlink="http://www.w3.org/1999/xlink">
 <defs>
  <style type="text/css">
   <![CDATA[
    .fil0 {fill:black}
   ]]>
  </style>
 </defs>
 <g id="Слой_x0020_1">
  <metadata id="CorelCorpID_0Corel-Layer"/>
  <path class="fil0" d="M4859.16 5751.23c-141.29,-216.25 -282.96,-432.34 -422.79,-648.82 -139.54,-216.06 -336.56,-512.72 -476.71,-729.17 -38.07,59.72 -75.07,120.11 -119.34,191.79 58.59,90.62 173.04,261.49 231.96,351.7 59.24,90.66 119.25,181.14 178.86,271.57 -261.78,-0.19 -523.56,-0.36 -785.34,-0.55 -5.08,0 -16.29,-0.67 -16.29,-0.67 -13.54,22.35 -85.72,136.57 -161.14,258.33 -75.67,122.16 -157.63,251.87 -188.06,306.07 52.81,0.4 155.26,-0.39 201.95,-0.39 36.14,-59.06 72.63,-118.28 109.42,-177.54 36.51,-58.8 72.26,-118.32 110.41,-177.62 289.21,0.13 578.41,0.26 868.63,0.39 38,59.51 77.01,118.91 115,178.14 37.98,59.23 78.02,118.59 117.04,177.82 124.74,-1.31 176.53,-0.91 236.4,-1.05z"/>
  <path class="fil0" d="M11903.74 5484.11c0.12,-39.18 0.21,-78.48 1.4,-117.65 -1.27,-15.92 -4.26,-53.3 -11.78,-80.01 -8.4,-37.51 -25.83,-80.15 -61.81,-139 -12.48,-21.32 -62.7,-69.39 -73.26,-80.06 12.74,-16.04 45.56,-64.05 53.79,-96.15 54.04,-160.08 35.85,-306.96 -37.4,-413.75 -73.18,-106.69 -202.53,-173.88 -369.63,-174.15 -279.2,-0.43 -557.33,-0.87 -836.53,-1.31 -68.99,-0.11 -136.9,-0.23 -205.9,-0.34 -10.77,-0.01 -26.94,-0.03 -36.65,-0.05 -40.97,-0.07 -81.93,-0.13 -122.89,-0.19 -0.67,59.76 -0.87,111.75 -1.22,202.56 175.75,0.52 351.5,1.03 527.24,1.41 211.31,0.29 422.63,0.58 644.72,0.88 273.62,11.02 273.77,80.51 284.42,213.83 6.83,85.56 11.91,203.1 -251.2,202.87 -350.46,-0.3 -857.98,3.82 -1209.93,-1.89 0.86,24.68 0.74,64.07 -0.63,155.86 -0.9,84.04 -3.25,190.7 -3.48,297.19 -0.21,106.37 -2.58,212.87 -3.51,296.78 82.04,0.7 134.9,0.84 202.81,0.15 0.27,-78.48 1.61,-156.83 1.87,-235.29 5.28,-69.61 4.75,-144.62 3.78,-224.89 -1.04,-26.77 -1,-53.52 -0.96,-80.27 387.14,0.24 759.19,0.47 1124.78,0.71 113.23,0.06 174.88,69.6 183.82,181.73 -1.69,59.95 -2.32,119.77 -2.94,179.43 -0.62,59.67 -1.24,119.61 -1.86,179.28 26.95,-0.27 165,-0.55 196.23,-1.1 1.19,-38.9 2.4,-77.94 4.67,-116.96 0.47,-48.17 0.94,-96.2 2.05,-149.62z"/>
  <path class="fil0" d="M8481.11 4580.84c543.42,1.3 1086.83,2.6 1630.23,3.75 0.35,-63.93 2.11,-137.01 2.29,-203.01 -543.3,-0.58 -1087.7,-1.32 -1631.01,-2.05 0.3,72.81 -0.74,142.13 -1.51,201.31z"/>
  <path class="fil0" d="M2817.63 4370.68c-118.01,122.19 -235.01,244.51 -351.93,366.67 -117.03,122.24 -234,244.61 -351.01,366.98 -121.29,-122.58 -241.49,-245.2 -361.69,-367.81 -120.15,-122.55 -241.43,-245.37 -361.59,-368.1 -54.95,0.32 -140.14,-0.24 -168.17,-0.28 -1.21,230.45 -2.42,460.92 -1.49,691.38 0.93,230.48 -0.28,461.11 0.66,691.76 45.3,0 175.82,-0.15 200.65,0.27 -0.28,-178.05 0.49,-356.25 0.21,-534.14 -0.27,-177.9 1.58,-355.92 2.36,-533.8 106.21,108.81 213.51,217.74 319.73,326.49 106.22,108.74 213.56,217.58 320.88,326.27 36.32,38.65 90.24,38.67 126.6,5.66 5.92,-7.42 11.83,-14.83 18.83,-22.25 0.95,-1.82 2.96,-3.63 4.98,-5.45 96.9,-103.08 193.51,-206.42 289.59,-309.17 96.58,-103.29 194.81,-206 292.73,-308.82 -0.82,175.79 -1.61,351.58 -1.37,527.37 0.26,175.8 0.52,351.77 0.78,527.72 43.12,-0.29 149.94,0 201.73,0.13 -0.05,-230.16 -0.09,-460.33 -0.12,-690.33 -0.04,-230.01 -0.09,-459.86 -0.14,-689.7 -94.92,-1 -144.44,-0.23 -182.22,-0.85z"/>
  <path class="fil0" d="M8345.64 4378.49c-26.94,-0.04 -54.97,-0.09 -83,-0.13 -445.63,-6 -889.77,-6.71 -1334.59,-2.13 -45.27,-0.07 -89.47,-0.13 -133.67,-0.21 -0.98,71.13 -2.09,140.45 -2.98,198.64 219.94,0.3 439.87,0.59 659.8,0.9 -1.48,147.43 -4.35,291.13 -5.24,432.6 -0.89,141.48 -1.92,281.14 -1.87,420.82 -2.44,107.68 -3.81,215.37 -5.15,323.19 45.28,-0.42 154.26,0 195.22,-0.27 2.71,-104.05 6.5,-207.95 10.3,-311.99 -0.43,-5.43 -0.85,-10.85 -1.26,-16.14 4.47,-136.99 7.76,-275.11 8.67,-415.99 0.91,-140.88 2.7,-284.54 4.18,-431.95 228.56,0.31 458.2,0.63 688.92,0.95 0.5,-62.53 0.29,-134.23 0.67,-198.29z"/>
  <g>
   <path class="fil0" d="M4905.7 5476.72c7.49,155.02 131.47,267.33 300.16,272.78 175.15,5.3 352.73,0 526.4,0 177.98,0 363.25,10.45 541.07,-5.42 120.21,-7.94 219.3,-65.35 283.99,-150.13 64.63,-84.67 98.09,-196.88 83.64,-314.27 -14.24,-114.61 -63.21,-204.18 -141.19,-264.81 -78,-60.64 -185.08,-92.92 -315.55,-93.06 -279.28,-0.26 -552.07,-0.53 -830.28,-0.8 -115.37,-0.11 -238.44,-16.26 -249.44,-160.5 -10.6,-138.79 95.28,-192.21 222.5,-192.03 314.8,0.43 636.09,0.87 945.5,1.29 51.75,0.08 93.8,0.14 132.92,32.21 5.82,5.44 12.02,16.04 18.24,26.76 0.4,5.3 -0.41,-5.28 0,0 2.54,33.02 5.08,66.03 7.6,98.75 62.57,0.36 135.92,0.86 198.45,0.94 -1.18,-15.19 -2.38,-30.64 -2.49,-46.1 -0.13,-1.66 -0.26,-3.48 -0.41,-5.29 -2.65,-160.11 -112.11,-293.53 -280.68,-299.08 -367.36,-11.45 -736.04,-12.05 -1097.43,-1.75 -116.01,5.25 -211.68,55.72 -274.46,132.51 -62.42,76.34 -94.11,179.55 -83.61,288.94 20.46,197.85 194.15,326.19 447.57,326.37 272.83,0.2 540.27,0.4 814.18,0.6 135.88,0.1 257.88,16.21 271.45,192.26 11.1,144.3 -66.46,229.66 -233.63,229.63 -310.23,5.22 -620.2,-0.16 -931.91,-0.23 -67.95,-0.03 -120.94,-16.08 -151.98,-69.52 -5.79,-5.3 -6.61,-16.03 -7.03,-21.48 -2.18,-28.46 -4.35,-57.05 -5.45,-85.51 -56.03,0.53 -138,0.5 -197.36,-0.09l9.23 107.03zm0 0c0,0 0,0 0,0 0,0 0,0 0,0z"/>
  </g>
  <path class="fil0" d="M10100.94 5558.43c-94.92,-0.02 -187.67,-0.04 -280.44,-0.06 -318.6,-5.36 -636.36,-0.16 -953.47,-0.23 -58.25,-0.02 -120.8,-0.03 -194.15,-0.04 -1.76,-77.67 -0.85,-148.93 -1.93,-217.84 -1.07,-68.9 0.15,-136 0.09,-205.74 78.72,0.05 141.27,0.11 198.42,0.14 308.42,0.22 616.18,5.86 917.3,-4.61 60.38,0.05 121.85,0.09 183.32,0.13 0.58,-88.21 1.84,-154.23 1.61,-198.06 -497.1,-0.48 -995.27,-0.95 -1494.51,-1.43 -0.97,42.79 -0.66,101.99 -2.94,155.47 2.12,110.06 0.02,221.22 -1,332.52 -1.01,111.16 -4.2,222.46 -5.29,332.66 37.74,0 75.5,0 114.34,0 5.38,0 5.38,0 10.78,0 282.62,0 557.68,0.01 840.29,0.01 221.14,0 443.35,0 666.64,0.02 1.5,-103.9 1.64,-143.15 0.94,-192.94z"/>
  <path class="fil0" d="M14596.46 5751.32c-2.41,-189.71 -4.84,-379.68 -7.25,-569.8 -2.41,-190.24 -4.83,-380.92 -7.26,-571.74 42.12,0.41 141.72,0.41 179.52,-0.84 2.33,191.09 4.68,382.17 7,572.57 2.32,190.25 4.64,380.52 6.96,570.36 -47.52,0.14 -144.04,-0.69 -178.97,-0.55z"/>
  <path class="fil0" d="M16412.99 5750.62c-2.03,-189.58 -2.67,-379.59 -4.7,-569.44 -2.03,-190.28 -2.68,-380.97 -4.02,-571.81 37.91,0.56 137.5,0.41 179.59,0.27 1.23,190.82 1.77,381.54 3.7,571.95 1.93,190.14 2.47,380 4.4,569.73 -50.29,0.69 -132.81,-0.14 -178.97,-0.7z"/>
  <path class="fil0" d="M19538.31 4609.56c-0.95,142.33 -1.2,284.8 -1.45,426.83 -0.25,141.91 -0.51,283.81 -0.77,425.44 -182.41,-141.76 -365.72,-283.66 -547.75,-425.68 -182.21,-142.17 -365.27,-284.48 -547.8,-426.92 -60.33,0.01 -100.28,0.43 -130.46,0.15 0.22,191 -0.27,381.72 0.65,572.14 0.91,190.16 1.13,380.19 2.04,569.8 34.98,0.55 154.49,0.28 189.44,0.55 -0.96,-142.72 -1.24,-285.6 -2.21,-428.6 -0.98,-143 -1.27,-286.27 -1.54,-429.7 183.1,143.42 366.82,286.61 549.54,429.56 182.67,142.91 366.47,285.86 549.45,428.32 32.14,-0.27 87.38,0.15 127.87,-0.68 0.64,-189.49 1.27,-379.41 1.89,-569.44 0.62,-190.31 1.25,-381.18 2.58,-571.91 -36.45,0.27 -150.1,0.14 -191.48,0.14z"/>
  <path class="fil0" d="M16252.99 4714.06c-45.78,-59.31 -122.14,-102.45 -285.57,-102.45 -131.17,0.01 -263.05,0.02 -389.3,0.03 -131.87,0.01 -264.09,-5.36 -389.99,0.04 -94.34,5.53 -173.73,45.91 -226.35,108.56 -52.61,62.63 -80.59,147.53 -71.47,241.84 11.88,177.54 145.44,290.36 345.65,290.35 199.85,5.25 394.12,-0.01 593.63,-0.02 84.01,0 267.43,-10.8 275.92,123.34 10.52,166.35 -162.93,166.36 -267.84,166.36 -209.82,0 -414.75,0 -624.57,0.01 -68.54,0 -121,0 -142.78,-85.73 -0.13,-1.81 -0.74,-9.09 -0.86,-10.89 -50.88,0.36 -115.93,0.11 -178.26,0.11 0.85,12.58 1.68,25.16 2.51,37.6 0.72,10.79 1.08,16.04 1.44,21.44 13.86,123.33 94.08,225.24 214.67,230.49 284.48,10.78 561.63,-5.25 844.72,-5.25 110.44,0 207.02,-30.88 270,-97.21 62.92,-66.28 93.64,-168.3 72.14,-310.59 -14.46,-230.93 -238.85,-279.32 -417.47,-279.32 -199.65,0.01 -394.38,0.02 -594.03,0.04 -84.05,0 -177.18,32.21 -187.52,-123.89 -7.5,-113.1 103.26,-113.11 166.35,-113.11 215.91,-0.01 421.31,-0.03 642.13,-0.05 131.79,-0.01 157.38,-5.39 195.89,16.04 0,0 5.24,5.39 11.2,10.78 5.95,5.39 6.29,10.79 6.62,16.17 1.26,19.92 2.5,39.69 3.74,59.33 85.61,0.18 142.48,-0.29 178.7,-0.01 -6.93,-110.9 3.75,-97.08 -49.3,-194.01z"/>
  <path class="fil0" d="M14364.5 4374.19c-41.4,61.4 -82.1,122.79 -122.78,184.04 -4.19,10.64 -9.45,15.9 -19.24,26.27 -17.71,28.07 -34.72,56 -51.72,84.08 -91.37,128.45 -181.16,258.43 -271.45,389.91 -90.21,131.35 -182.33,264.77 -277.65,400.68 -82.21,-122.91 -162.29,-244.29 -240.16,-363.89 -77.95,-119.71 -155.11,-237.79 -232.15,-353.23 0,0 0,0 -0.37,-5.11 -40.83,-60.42 -81.72,-120.82 -121.85,-181.24 -40.2,-60.54 -81.07,-121.11 -121.29,-181.8 -50.48,1.11 -157.91,0.57 -207.75,0.57 61.84,96.35 125.02,192.72 188.19,288.93 97.92,160.1 199.12,318.69 300.88,475.72 101.59,156.79 205.17,312.18 308.5,466.2 94.32,146.13 147.11,151.11 237.84,20.87 66.61,-96.51 133.29,-193.27 199.92,-290.48 66.71,-97.32 133.38,-195.37 199.32,-294.92 47.83,-68.04 96.02,-141.45 143.89,-209.63 1.28,-1.66 2.56,-3.45 4.54,-5.38 50.23,-74.94 101.16,-150.32 151.43,-225.52 50.28,-75.22 102,-150.73 153.02,-226.08 -42.11,0 -167.75,0.15 -221.12,0.01z"/>
  <path class="fil0" d="M17879.51 4611.49c-282.67,0.02 -565.35,0.03 -848.02,0.05 -152.92,0 -271.6,124.06 -262.06,280.33 -2.44,97.9 -4.87,195.81 -6.6,293.44 -1.72,97.49 -3.44,195.13 -5.18,292.62 9.52,155.43 143.56,278.5 295.23,278.5 281.67,0 563.35,0 845.02,0 152.37,0 271.18,-122.94 262.34,-278.53 1.5,-96.53 3.02,-193.2 4.52,-289.86 1.51,-96.8 3.01,-193.77 4.51,-290.85 -3.25,-156.27 -136.84,-285.71 -289.76,-285.7zm97.1 775.14c5.85,101.92 -83.63,187.81 -194.13,187.81 -206.99,0.01 -413.3,0.01 -619.6,0.01 -109.8,0 -210.12,-85.87 -216.29,-187.94 0.93,-65.27 2.58,-130.54 3.53,-195.81 0.94,-65.4 2.57,-130.96 4.21,-196.52 -6.2,-102.32 83.94,-188.48 193.99,-188.48 206.8,-0.01 413.6,-0.03 621.1,-0.04 110.76,-0.01 210.33,86.15 216.19,188.49 -1.85,65.55 -3.7,131.11 -4.85,196.51 -1.14,65.28 -2.99,130.56 -4.15,195.97z"/>
 </g>
</svg>
